<?xml version="1.0" encoding="UTF-8" standalone="no"?>
<svg width="620px" height="111px" viewBox="0 0 620 111" version="1.1" xmlns="http://www.w3.org/2000/svg" xmlns:xlink="http://www.w3.org/1999/xlink" xmlns:sketch="http://www.bohemiancoding.com/sketch/ns">
    <title>terminal logo</title>
    <description>Created with Sketch (http://www.bohemiancoding.com/sketch)</description>
    <defs></defs>
    <g id="Page-1" stroke="none" stroke-width="1" fill="none" fill-rule="evenodd" sketch:type="MSPage">
        <path d="M0,8.00515921 L0,102.994841 C0,107.415968 3.58280463,111 8.00887174,111 L611.991128,111 C616.414306,111 620,107.416943 620,102.994841 L620,8.00515921 C620,3.58403186 616.417195,0 611.991128,0 L8.00887174,0 C3.58569401,0 0,3.5830567 0,8.00515921 Z M611.991128,9 C611.446067,9 611,8.55402897 611,8.00515921 L611,102.994841 C611,102.44494 611.445184,102 611.991128,102 L8.00887174,102 C8.55393333,102 9,102.445971 9,102.994841 L9,8.00515921 C9,8.55506025 8.55481644,9 8.00887174,9 L611.991128,9 Z" id="Rectangle-1" fill="#000000" sketch:type="MSShapeGroup"></path>
        <path d="M42.76,31.6 L92.44,31.6 C92.9680026,31.6 93.4239981,31.7919981 93.808,32.176 C94.1920019,32.5600019 94.384,33.0159974 94.384,33.544 L94.384,45.136 C94.384,45.6640026 94.1920019,46.1199981 93.808,46.504 C93.4239981,46.8880019 92.9680026,47.08 92.44,47.08 L76.96,47.08 L76.96,80.056 C76.96,80.5840026 76.7680019,81.0399981 76.384,81.424 C75.9999981,81.8080019 75.5440026,82 75.016,82 L60.184,82 C59.6559974,82 59.2000019,81.8080019 58.816,81.424 C58.4319981,81.0399981 58.24,80.5840026 58.24,80.056 L58.24,47.08 L42.76,47.08 C42.2319974,47.08 41.7760019,46.8880019 41.392,46.504 C41.0079981,46.1199981 40.816,45.6640026 40.816,45.136 L40.816,33.544 C40.816,33.0159974 41.0079981,32.5600019 41.392,32.176 C41.7760019,31.7919981 42.2319974,31.6 42.76,31.6 Z M131.4,67.96 L160.128,67.96 C160.656003,67.96 161.111998,68.1519981 161.496,68.536 C161.880002,68.9200019 162.072,69.3759974 162.072,69.904 L162.072,80.056 C162.072,80.5840026 161.880002,81.0399981 161.496,81.424 C161.111998,81.8080019 160.656003,82 160.128,82 L114.624,82 C114.095997,82 113.640002,81.8080019 113.256,81.424 C112.871998,81.0399981 112.68,80.5840026 112.68,80.056 L112.68,33.544 C112.68,33.0159974 112.871998,32.5600019 113.256,32.176 C113.640002,31.7919981 114.095997,31.6 114.624,31.6 L159.408,31.6 C159.936003,31.6 160.391998,31.7919981 160.776,32.176 C161.160002,32.5600019 161.352,33.0159974 161.352,33.544 L161.352,43.696 C161.352,44.2240026 161.160002,44.6799981 160.776,45.064 C160.391998,45.4480019 159.936003,45.64 159.408,45.64 L131.4,45.64 L131.4,50.176 L155.448,50.176 C155.976003,50.176 156.431998,50.3679981 156.816,50.752 C157.200002,51.1360019 157.392,51.5919974 157.392,52.12 L157.392,61.48 C157.392,62.0080026 157.200002,62.4639981 156.816,62.848 C156.431998,63.2320019 155.976003,63.424 155.448,63.424 L131.4,63.424 L131.4,67.96 Z M234.584,79.768 C234.68,79.960001 234.728,80.2239983 234.728,80.56 C234.728,80.8960017 234.572002,81.2199984 234.26,81.532 C233.947998,81.8440016 233.576002,82 233.144,82 L216.8,82 C215.359993,82 214.352003,81.400006 213.776,80.2 L207.44,65.944 L201.392,65.944 L201.392,80.056 C201.392,80.5840026 201.200002,81.0399981 200.816,81.424 C200.431998,81.8080019 199.976003,82 199.448,82 L183.896,82 C183.367997,82 182.912002,81.8080019 182.528,81.424 C182.143998,81.0399981 181.952,80.5840026 181.952,80.056 L181.952,33.544 C181.952,33.0159974 182.143998,32.5600019 182.528,32.176 C182.912002,31.7919981 183.367997,31.6 183.896,31.6 L211.904,31.6 C218.480033,31.6 223.687981,33.1599844 227.528,36.28 C231.368019,39.4000156 233.288,43.6479731 233.288,49.024 C233.288,55.5520326 230.768025,60.2799854 225.728,63.208 L234.584,79.768 Z M201.392,44.992 L201.392,52.624 L210.392,52.624 C211.448005,52.624 212.263997,52.2760035 212.84,51.58 C213.416003,50.8839965 213.704,50.0080053 213.704,48.952 C213.704,47.8959947 213.428003,46.972004 212.876,46.18 C212.323997,45.387996 211.496006,44.992 210.392,44.992 L201.392,44.992 Z M287.728,31.6 L300.904,31.6 C301.432003,31.6 301.887998,31.7919981 302.272,32.176 C302.656002,32.5600019 302.848,33.0159974 302.848,33.544 L302.848,80.056 C302.848,80.5840026 302.656002,81.0399981 302.272,81.424 C301.887998,81.8080019 301.432003,82 300.904,82 L287.872,82 C287.343997,82 286.888002,81.8080019 286.504,81.424 C286.119998,81.0399981 285.928,80.5840026 285.928,80.056 L285.928,57.736 L280.672,68.104 C280.383999,68.6800029 279.952003,69.1239984 279.376,69.436 C278.799997,69.7480016 278.224003,69.904 277.648,69.904 L272.752,69.904 C271.935996,69.904 271.264003,69.6880022 270.736,69.256 C270.207997,68.8239978 269.872001,68.4400017 269.728,68.104 L264.472,57.736 L264.472,80.056 C264.472,80.5840026 264.280002,81.0399981 263.896,81.424 C263.511998,81.8080019 263.056003,82 262.528,82 L249.496,82 C248.967997,82 248.512002,81.8080019 248.128,81.424 C247.743998,81.0399981 247.552,80.5840026 247.552,80.056 L247.552,33.544 C247.552,33.0159974 247.743998,32.5600019 248.128,32.176 C248.512002,31.7919981 248.967997,31.6 249.496,31.6 L262.672,31.6 C264.016007,31.6 265.047996,32.2479935 265.768,33.544 L275.2,50.824 L284.632,33.544 C285.352004,32.2479935 286.383993,31.6 287.728,31.6 Z M367.224,46.36 L354.192,46.36 L354.192,67.24 L367.224,67.24 C367.752003,67.24 368.207998,67.4319981 368.592,67.816 C368.976002,68.2000019 369.168,68.6559974 369.168,69.184 L369.168,80.056 C369.168,80.5840026 368.976002,81.0399981 368.592,81.424 C368.207998,81.8080019 367.752003,82 367.224,82 L321.576,82 C321.047997,82 320.592002,81.8080019 320.208,81.424 C319.823998,81.0399981 319.632,80.5840026 319.632,80.056 L319.632,69.184 C319.632,68.6559974 319.823998,68.2000019 320.208,67.816 C320.592002,67.4319981 321.047997,67.24 321.576,67.24 L334.752,67.24 L334.752,46.36 L321.576,46.36 C321.047997,46.36 320.592002,46.1680019 320.208,45.784 C319.823998,45.3999981 319.632,44.9440026 319.632,44.416 L319.632,33.544 C319.632,33.0159974 319.823998,32.5600019 320.208,32.176 C320.592002,31.7919981 321.047997,31.6 321.576,31.6 L367.224,31.6 C367.752003,31.6 368.207998,31.7919981 368.592,32.176 C368.976002,32.5600019 369.168,33.0159974 369.168,33.544 L369.168,44.416 C369.168,44.9440026 368.976002,45.3999981 368.592,45.784 C368.207998,46.1680019 367.752003,46.36 367.224,46.36 Z M422.744,31.6 L436.136,31.6 C436.664003,31.6 437.119998,31.7919981 437.504,32.176 C437.888002,32.5600019 438.08,33.0159974 438.08,33.544 L438.08,80.056 C438.08,80.5840026 437.888002,81.0399981 437.504,81.424 C437.119998,81.8080019 436.664003,82 436.136,82 L424.544,82 C423.391994,82 422.432004,81.496005 421.664,80.488 L405.968,60.472 L405.968,80.056 C405.968,80.5840026 405.776002,81.0399981 405.392,81.424 C405.007998,81.8080019 404.552003,82 404.024,82 L390.632,82 C390.103997,82 389.648002,81.8080019 389.264,81.424 C388.879998,81.0399981 388.688,80.5840026 388.688,80.056 L388.688,33.544 C388.688,33.0159974 388.879998,32.5600019 389.264,32.176 C389.648002,31.7919981 390.103997,31.6 390.632,31.6 L402.296,31.6 C403.448006,31.6 404.383996,32.0799952 405.104,33.04 L420.8,54.712 L420.8,33.544 C420.8,33.0159974 420.991998,32.5600019 421.376,32.176 C421.760002,31.7919981 422.215997,31.6 422.744,31.6 Z M469.192,82 L455.584,82 C455.151998,82 454.780002,81.8440016 454.468,81.532 C454.155998,81.2199984 454,80.9200014 454,80.632 C454,80.3439986 454.024,80.1280007 454.072,79.984 L469.768,33.976 C470.200002,32.3919921 471.279991,31.6 473.008,31.6 L493.024,31.6 C494.752009,31.6 495.831998,32.3919921 496.264,33.976 L511.96,79.984 C512.008,80.1280007 512.032,80.3439986 512.032,80.632 C512.032,80.9200014 511.876002,81.2199984 511.564,81.532 C511.251998,81.8440016 510.880002,82 510.448,82 L496.84,82 C495.303992,82 494.224003,81.1840082 493.6,79.552 L491.8,74.512 L474.232,74.512 L472.432,79.552 C471.807997,81.1840082 470.728008,82 469.192,82 Z M488.128,60.472 L483.016,45.496 L477.904,60.472 L488.128,60.472 Z M550.92,67.24 L575.472,67.24 C576.000003,67.24 576.455998,67.4319981 576.84,67.816 C577.224002,68.2000019 577.416,68.6559974 577.416,69.184 L577.416,80.056 C577.416,80.5840026 577.224002,81.0399981 576.84,81.424 C576.455998,81.8080019 576.000003,82 575.472,82 L533.424,82 C532.895997,82 532.440002,81.8080019 532.056,81.424 C531.671998,81.0399981 531.48,80.5840026 531.48,80.056 L531.48,33.544 C531.48,33.0159974 531.671998,32.5600019 532.056,32.176 C532.440002,31.7919981 532.895997,31.6 533.424,31.6 L548.976,31.6 C549.504003,31.6 549.959998,31.7919981 550.344,32.176 C550.728002,32.5600019 550.92,33.0159974 550.92,33.544 L550.92,67.24 Z" id="terminal" fill="#000000" sketch:type="MSShapeGroup"></path>
    </g>
</svg>